<?xml version="1.0" standalone="no"?>
<!DOCTYPE svg PUBLIC "-//W3C//DTD SVG 20010904//EN"
 "http://www.w3.org/TR/2001/REC-SVG-20010904/DTD/svg10.dtd">
<svg version="1.0" xmlns="http://www.w3.org/2000/svg"
 width="1000.000000pt" height="1000.000000pt" viewBox="0 0 1000.000000 1000.000000"
 preserveAspectRatio="xMidYMid meet">
<metadata>
Created by potrace 1.11, written by Peter Selinger 2001-2013
</metadata>
<g transform="translate(0.000000,1000.000000) scale(0.100000,-0.100000)"
fill="#000000" stroke="none">
<path d="M4974 9986 c-11 -8 -37 -24 -59 -36 -22 -12 -86 -49 -142 -81 -56
-33 -107 -59 -112 -59 -6 0 -11 -3 -11 -8 0 -4 -17 -16 -37 -27 -21 -11 -60
-34 -88 -51 -27 -17 -60 -34 -72 -38 -13 -4 -23 -11 -23 -16 0 -5 -9 -12 -20
-15 -11 -4 -49 -24 -85 -46 -36 -21 -69 -39 -74 -39 -5 0 -16 -6 -23 -12 -14
-13 -29 -23 -107 -66 -25 -13 -57 -32 -71 -42 -14 -9 -32 -20 -40 -23 -8 -4
-37 -20 -65 -37 -27 -17 -63 -37 -80 -46 -16 -8 -43 -23 -60 -34 -16 -11 -37
-23 -45 -27 -56 -29 -156 -88 -158 -95 -2 -4 -12 -8 -22 -8 -10 0 -20 -4 -22
-8 -3 -7 -24 -20 -128 -80 -19 -11 -80 -46 -135 -77 -126 -73 -173 -100 -205
-118 -87 -48 -196 -113 -198 -119 -2 -5 -8 -8 -12 -8 -7 0 -193 -104 -270
-151 -79 -48 -223 -129 -229 -129 -5 0 -19 -8 -32 -18 -13 -10 -49 -32 -79
-48 -30 -16 -57 -32 -60 -35 -3 -3 -21 -14 -40 -24 -19 -9 -43 -24 -52 -33
-10 -8 -18 -12 -18 -8 0 4 -12 -1 -28 -12 -26 -18 -381 -226 -452 -265 -62
-33 -259 -146 -310 -177 -17 -10 -125 -73 -430 -249 l-205 -118 -3 -2501 -2
-2501 77 -45 c43 -24 83 -49 90 -55 7 -6 18 -11 24 -11 7 0 20 -6 28 -14 9 -7
43 -28 76 -46 33 -18 67 -39 76 -46 8 -8 19 -14 24 -14 4 0 61 -31 125 -70 64
-38 120 -70 123 -70 3 0 26 -13 50 -30 25 -16 50 -30 56 -30 6 0 11 -4 11 -10
0 -5 4 -10 10 -10 5 0 50 -24 100 -53 50 -28 99 -57 109 -62 10 -6 26 -17 35
-24 9 -7 16 -10 16 -7 0 4 12 -1 28 -12 26 -19 47 -31 152 -90 25 -14 61 -35
80 -47 93 -58 491 -285 500 -285 5 0 10 -3 10 -8 0 -4 21 -18 48 -32 26 -13
66 -37 89 -52 23 -15 45 -28 48 -28 4 0 70 -37 148 -83 131 -77 168 -99 267
-155 185 -105 326 -188 328 -194 2 -5 8 -8 13 -8 8 0 174 -91 194 -107 6 -4
24 -15 40 -23 17 -8 46 -24 65 -36 19 -11 55 -32 80 -46 25 -14 122 -69 215
-123 94 -54 183 -106 200 -114 16 -9 32 -18 35 -21 3 -3 16 -11 29 -18 27 -16
35 -20 221 -127 74 -42 145 -84 157 -91 13 -8 25 -13 27 -12 2 2 12 -4 22 -13
11 -9 39 -28 64 -41 58 -33 101 -57 177 -102 54 -32 65 -35 87 -24 14 6 26 15
26 20 0 4 7 8 15 8 9 0 21 5 28 10 19 17 288 170 298 170 5 0 9 4 9 8 0 4 15
15 33 23 30 15 180 101 382 219 106 62 130 76 210 121 33 18 62 37 63 41 2 4
9 8 16 8 6 0 28 11 49 25 20 14 37 22 37 18 0 -4 4 -3 8 3 4 6 63 42 132 79
69 37 142 79 163 92 21 13 49 28 62 33 14 5 25 15 25 21 0 7 3 9 7 6 3 -4 11
-3 17 2 6 5 38 24 71 42 33 18 62 35 65 38 3 4 23 15 45 26 22 11 44 24 50 28
19 15 425 247 432 247 3 0 14 6 22 14 9 8 36 25 61 39 25 13 89 49 144 80 54
32 102 57 106 57 5 0 10 3 12 8 2 6 232 141 333 196 11 6 22 13 25 17 10 11
111 69 120 69 6 0 10 5 10 11 0 5 5 7 10 4 6 -3 10 -1 10 4 0 6 4 11 9 11 4 0
59 29 120 65 62 36 114 65 117 65 3 0 10 5 17 10 12 11 737 430 789 457 15 8
30 18 33 24 4 5 15 9 25 9 10 0 20 4 22 8 2 4 20 18 41 31 l37 23 0 2498 0
2499 -62 37 c-35 20 -79 46 -98 57 -19 10 -72 41 -118 68 -45 27 -85 49 -88
49 -3 0 -24 13 -47 28 -23 15 -53 33 -67 40 -49 24 -140 78 -152 90 -7 7 -15
12 -19 12 -4 0 -42 20 -83 45 -42 25 -81 45 -86 45 -6 0 -10 5 -10 10 0 6 -4
10 -9 10 -9 0 -94 47 -156 85 -11 7 -23 13 -27 14 -4 1 -44 24 -88 51 -44 28
-82 50 -84 50 -2 0 -50 27 -105 60 -56 33 -104 60 -108 60 -3 0 -14 6 -22 14
-9 7 -41 27 -71 43 -30 16 -153 87 -273 156 -120 70 -222 127 -227 127 -6 0
-10 5 -10 10 0 6 -7 10 -15 10 -8 0 -15 5 -15 11 0 5 -4 8 -9 5 -5 -3 -14 1
-21 9 -7 8 -16 15 -21 15 -5 0 -38 18 -74 40 -36 22 -67 40 -69 40 -2 0 -35
19 -72 41 -38 23 -87 52 -109 64 -22 12 -80 46 -130 74 -98 57 -143 83 -220
127 -27 15 -52 30 -55 33 -3 3 -30 19 -60 35 -30 16 -62 35 -71 42 -9 8 -19
11 -22 7 -4 -3 -7 -1 -7 5 0 7 -4 12 -9 12 -8 0 -151 80 -161 90 -3 3 -30 18
-60 34 -30 16 -62 34 -70 41 -8 6 -26 16 -40 23 -14 7 -32 16 -40 22 -15 10
-202 118 -283 164 -74 41 -171 98 -197 114 -14 9 -27 17 -30 17 -11 2 -120 68
-126 76 -3 5 -10 7 -15 4 -5 -4 -9 -1 -9 4 0 6 -4 11 -9 11 -5 0 -67 34 -137
76 -156 92 -166 96 -190 80z m143 -709 c59 -35 115 -66 123 -70 8 -4 29 -16
45 -27 17 -11 37 -23 45 -27 8 -4 43 -24 78 -45 34 -21 64 -38 67 -38 3 0 34
-18 70 -40 36 -22 70 -40 75 -40 6 0 10 -3 10 -8 0 -4 13 -13 28 -19 15 -7 50
-27 77 -44 l49 -31 -39 -20 c-22 -11 -47 -26 -55 -33 -8 -8 -22 -15 -30 -17
-8 -2 -17 -6 -20 -9 -3 -3 -63 -39 -135 -80 -71 -40 -132 -76 -135 -80 -3 -3
-20 -12 -37 -20 -18 -8 -33 -17 -33 -21 0 -5 -4 -8 -9 -8 -4 0 -74 -38 -155
-84 l-147 -85 -65 40 c-35 21 -67 39 -70 39 -3 0 -28 15 -57 33 -29 18 -65 40
-82 48 -43 22 -79 43 -85 50 -3 3 -21 14 -40 24 -19 10 -82 45 -140 79 -58 34
-122 70 -142 81 -21 11 -38 23 -38 27 0 5 -6 8 -13 8 -7 0 -21 6 -31 13 -17
12 -14 17 40 48 33 18 70 39 84 46 14 7 34 18 45 25 27 18 81 50 135 80 59 33
87 49 263 152 82 47 152 86 156 86 5 0 14 7 21 15 7 8 18 15 26 15 7 0 61 -28
121 -63z m-1457 -732 c0 7 3 7 8 0 7 -10 31 -25 87 -54 16 -9 32 -18 35 -21 3
-3 25 -16 50 -29 25 -13 52 -29 60 -35 8 -7 29 -18 45 -26 17 -8 36 -21 43
-27 7 -7 18 -13 24 -13 5 0 22 -8 36 -19 15 -10 47 -29 72 -43 58 -33 101 -57
175 -101 33 -20 77 -44 98 -53 20 -9 37 -20 37 -25 0 -5 4 -9 9 -9 6 0 67 -33
138 -74 l128 -75 0 -615 0 -615 -40 -22 c-22 -13 -84 -49 -138 -81 -53 -32
-99 -58 -101 -58 -2 0 -34 -18 -70 -40 -36 -22 -68 -40 -71 -40 -2 0 -28 -15
-57 -33 -29 -19 -60 -37 -68 -41 -8 -4 -24 -12 -35 -19 -11 -7 -63 -37 -115
-67 -52 -30 -104 -60 -115 -67 -11 -7 -27 -16 -35 -20 -8 -4 -60 -33 -114 -66
l-99 -59 -39 18 c-21 9 -38 20 -38 24 0 3 -16 12 -35 20 -19 8 -35 17 -35 22
0 4 -4 8 -10 8 -5 0 -44 20 -86 45 -41 25 -78 45 -80 45 -2 0 -23 12 -47 27
-23 15 -51 32 -62 38 -106 59 -142 79 -155 89 -8 6 -35 22 -60 35 -25 13 -52
30 -61 37 -8 8 -18 14 -21 14 -3 0 -71 38 -152 85 -80 47 -150 85 -156 85 -5
0 -10 5 -10 10 0 6 -6 10 -12 10 -10 0 -13 127 -12 603 0 331 4 612 8 625 4
12 15 22 25 22 10 0 24 7 31 15 7 8 16 15 20 15 4 0 67 35 141 78 74 44 238
139 364 212 290 167 291 168 343 197 24 14 65 37 90 52 32 19 49 24 54 17 5
-7 8 -7 8 -1z m2715 -11 c34 -19 79 -44 103 -59 15 -9 227 -131 303 -175 54
-31 435 -251 449 -260 8 -5 51 -30 95 -55 l80 -45 0 -606 c0 -395 -3 -611 -10
-620 -5 -7 -91 -59 -190 -116 -99 -58 -270 -156 -380 -220 -110 -64 -216 -125
-235 -136 -19 -10 -83 -47 -143 -81 l-108 -61 -47 26 c-147 82 -278 160 -284
169 -4 5 -8 6 -8 2 0 -5 -12 0 -27 11 -16 10 -74 45 -131 77 -56 31 -105 61
-108 66 -3 5 -10 7 -15 4 -5 -4 -9 -1 -9 4 0 6 -4 11 -9 11 -4 0 -41 19 -80
43 -39 23 -79 47 -89 52 -9 6 -57 33 -105 60 -49 28 -98 55 -109 61 -11 7 -25
17 -31 23 -14 14 -16 1215 -2 1233 6 7 24 20 40 29 44 23 316 179 345 197 14
9 28 15 33 14 4 -1 7 2 7 7 0 5 10 13 23 17 12 3 41 19 65 35 24 16 44 29 46
29 4 0 227 128 281 161 17 11 37 22 45 26 8 4 38 21 65 37 28 17 59 36 70 43
27 16 35 16 70 -3z m1667 -947 c30 -19 62 -37 71 -40 10 -3 42 -22 72 -42 31
-19 57 -35 60 -35 2 0 28 -14 57 -31 29 -18 67 -40 83 -49 17 -10 107 -61 200
-115 94 -54 172 -100 174 -102 8 -6 6 -913 -1 -913 -4 0 -42 20 -84 45 -41 25
-80 45 -85 45 -5 0 -9 4 -9 8 0 4 -12 13 -27 19 -16 7 -46 23 -68 37 -22 14
-51 30 -64 36 -13 6 -35 19 -50 29 -14 10 -46 29 -71 43 -130 72 -165 93 -168
100 -2 4 -8 8 -14 8 -5 0 -40 18 -77 40 l-68 40 0 455 c-1 250 2 455 6 455 4
0 32 -15 63 -33z m-6032 -430 l0 -452 -62 -35 c-104 -59 -131 -74 -183 -105
-27 -17 -63 -38 -80 -48 -16 -10 -42 -23 -57 -30 -16 -6 -28 -15 -28 -19 0 -4
-5 -8 -10 -8 -6 0 -29 -11 -51 -26 -22 -14 -56 -34 -75 -45 -66 -37 -100 -57
-159 -92 -60 -35 -85 -34 -65 4 5 9 7 18 5 21 -9 8 -11 83 -4 110 4 15 4 30 0
32 -4 3 -5 22 -4 43 3 38 3 81 -1 118 -1 11 1 32 5 47 4 15 4 30 0 32 -4 3 -5
22 -4 43 3 38 3 81 -1 118 -1 11 1 32 5 47 4 15 4 30 0 32 -4 3 -5 22 -4 43 4
54 4 52 2 116 -2 39 2 62 12 71 8 8 88 56 179 108 91 52 224 129 297 171 72
42 147 85 165 95 18 11 49 29 68 40 19 12 38 22 43 22 4 0 7 -204 7 -453z
m439 -1029 c34 -21 64 -38 66 -38 2 0 49 -27 105 -60 56 -33 106 -60 111 -60
5 0 9 -4 9 -10 0 -5 4 -10 10 -10 5 0 64 -32 132 -71 67 -40 136 -80 153 -89
16 -10 70 -41 118 -69 49 -28 93 -51 98 -51 5 0 9 -4 9 -10 0 -5 5 -10 10 -10
6 0 28 -11 49 -24 l38 -24 0 -615 0 -615 -26 -14 c-14 -8 -71 -41 -126 -74
-55 -32 -102 -59 -105 -59 -3 0 -24 -13 -47 -28 -24 -15 -45 -27 -48 -27 -2 0
-29 -16 -60 -35 -30 -20 -55 -33 -55 -30 0 3 -15 -5 -33 -19 -19 -15 -39 -26
-45 -26 -7 0 -12 -4 -12 -10 0 -5 -5 -10 -10 -10 -6 0 -106 -56 -223 -124
-301 -175 -263 -161 -327 -120 -30 18 -59 34 -63 34 -5 0 -21 8 -35 19 -15 10
-44 28 -64 40 -61 34 -96 54 -228 131 -69 40 -141 81 -160 92 -19 11 -77 45
-127 75 -51 29 -95 53 -99 53 -4 -1 -10 2 -13 8 -3 5 -26 20 -51 34 -170 95
-159 85 -160 143 -1 76 0 108 6 127 2 9 0 19 -5 22 -5 4 -6 18 -2 34 9 34 7
84 -3 100 -4 7 -4 17 0 24 11 17 12 78 2 84 -5 3 -5 10 -2 16 4 5 6 182 6 393
l0 382 41 24 c72 41 418 241 494 286 21 13 45 26 53 30 7 4 42 24 77 45 34 21
65 38 69 38 3 0 18 8 32 19 15 10 47 30 72 43 25 14 83 48 130 76 l85 49 45
-25 c25 -14 74 -43 109 -64z m5278 66 c3 -8 13 -14 22 -14 9 0 21 -4 27 -9 9
-9 400 -237 504 -294 30 -16 60 -33 65 -37 6 -4 26 -17 45 -28 19 -11 64 -36
100 -57 36 -21 81 -46 100 -57 38 -22 153 -90 159 -94 2 -2 4 -1100 1 -1211 0
-22 -8 -28 -97 -73 -24 -12 -43 -26 -43 -31 0 -5 -7 -9 -15 -9 -8 0 -39 -16
-69 -35 -30 -19 -57 -35 -59 -35 -3 0 -34 -17 -68 -38 -35 -22 -91 -54 -124
-72 -33 -18 -69 -38 -80 -44 -10 -6 -25 -17 -33 -23 -7 -7 -20 -13 -28 -13 -8
0 -14 -4 -14 -10 0 -5 -11 -12 -25 -16 -14 -3 -25 -10 -25 -15 0 -5 -5 -9 -10
-9 -6 0 -91 -47 -191 -105 l-180 -104 -127 74 c-71 40 -146 84 -169 97 -22 12
-105 60 -184 106 -79 46 -151 87 -159 92 -108 65 -242 140 -250 140 -6 0 -10
4 -10 9 0 5 -8 11 -17 14 -10 3 -40 20 -68 37 -27 16 -57 33 -65 36 -14 4 -15
80 -15 622 l0 616 135 78 c74 43 144 83 155 88 11 6 36 20 55 31 50 30 336
197 390 227 25 14 88 50 140 80 52 30 104 60 115 66 11 6 22 13 25 16 28 28
77 30 87 4z m-2707 6 c0 -5 5 -10 11 -10 7 0 40 -18 75 -40 35 -22 66 -40 68
-40 3 0 29 -14 58 -31 29 -18 69 -41 88 -52 75 -42 366 -211 390 -226 14 -8
27 -16 30 -16 3 0 23 -12 45 -26 22 -14 72 -43 110 -64 39 -21 82 -46 97 -56
14 -11 31 -19 36 -19 6 0 14 -5 18 -12 4 -6 8 -284 8 -617 1 -564 0 -607 -16
-623 -10 -10 -25 -18 -33 -18 -8 0 -15 -3 -15 -8 0 -4 -21 -18 -47 -32 -40
-21 -121 -67 -193 -110 -18 -10 -252 -146 -509 -294 -101 -58 -188 -106 -193
-106 -4 0 -8 -3 -8 -8 0 -4 -10 -12 -22 -18 -19 -8 -35 -4 -88 25 -36 19 -77
42 -92 53 -14 10 -28 18 -31 18 -2 0 -93 52 -201 115 -109 63 -200 115 -203
115 -4 0 -14 6 -22 14 -9 8 -38 26 -66 40 -27 15 -57 31 -65 36 -60 38 -172
100 -180 100 -6 0 -10 5 -10 10 0 6 -4 10 -10 10 -8 0 -100 52 -119 67 -6 5
-7 1213 -1 1223 3 4 43 29 90 56 47 27 87 51 90 54 3 3 21 13 40 23 19 9 58
30 85 47 28 16 73 42 100 56 28 15 52 30 55 34 3 3 19 13 35 22 27 14 328 187
485 279 63 37 110 49 110 29z m-1296 -2365 c42 -25 81 -45 86 -45 6 0 10 -4
10 -10 0 -5 6 -10 14 -10 8 0 21 -6 28 -12 8 -7 29 -21 48 -32 33 -17 234
-133 318 -183 20 -12 44 -26 53 -30 9 -4 108 -61 220 -126 l204 -119 0 -611 0
-612 -115 -68 c-63 -37 -122 -70 -130 -74 -8 -4 -43 -24 -78 -45 -34 -21 -65
-38 -68 -38 -3 0 -18 -8 -32 -19 -15 -10 -49 -31 -77 -45 -27 -15 -63 -36 -80
-46 -16 -10 -41 -25 -55 -32 -14 -8 -100 -58 -192 -111 -92 -53 -170 -97 -173
-97 -4 0 -14 -7 -22 -16 -16 -15 -61 -12 -73 5 -3 4 -20 14 -37 22 -18 8 -33
17 -33 21 0 5 -4 8 -9 8 -5 0 -49 23 -98 51 -48 28 -104 60 -123 71 -19 11
-60 34 -90 51 -30 17 -56 34 -58 39 -2 4 -8 8 -13 8 -5 0 -75 38 -155 85 -81
47 -150 85 -155 85 -5 0 -9 5 -9 10 0 6 -5 10 -11 10 -6 0 -44 20 -85 45 -40
25 -78 45 -84 45 -5 0 -10 4 -10 9 0 5 -11 12 -25 15 -14 4 -25 14 -26 24 -1
9 -2 285 -3 612 -1 518 1 596 14 606 13 10 216 128 320 187 38 21 163 94 195
114 11 7 32 17 48 24 15 6 27 15 27 20 0 5 4 9 9 9 6 0 60 29 122 65 61 36
116 65 120 65 5 0 9 5 9 11 0 5 4 8 9 4 5 -3 12 -1 15 4 6 9 162 101 173 101
1 0 36 -20 77 -45z m2684 6 c119 -70 177 -102 195 -108 9 -3 17 -9 17 -14 0
-5 5 -9 11 -9 6 0 30 -13 54 -30 24 -16 46 -30 50 -30 3 0 60 -32 128 -71 67
-40 142 -83 167 -97 82 -46 304 -175 340 -197 l35 -22 0 -604 c0 -332 -3 -608
-7 -614 -3 -5 -24 -19 -45 -30 -21 -11 -40 -22 -43 -25 -5 -6 -36 -24 -145
-85 -41 -22 -324 -186 -543 -313 -68 -40 -127 -72 -132 -72 -6 0 -10 -4 -10
-10 0 -5 -4 -10 -9 -10 -6 0 -37 -16 -71 -36 l-61 -35 -64 33 c-36 18 -65 36
-65 40 0 5 -4 8 -10 8 -9 0 -307 168 -370 208 -14 9 -28 15 -32 14 -5 -1 -8 2
-8 8 0 5 -5 10 -10 10 -6 0 -36 16 -66 35 -30 19 -56 35 -58 35 -4 0 -207 116
-246 140 -8 6 -28 17 -45 26 -16 9 -43 26 -60 39 l-30 22 0 609 1 609 69 42
c39 23 87 50 107 60 21 10 38 21 38 26 0 4 4 7 10 7 5 0 59 29 119 65 60 36
115 65 120 65 6 0 11 4 11 9 0 5 10 13 23 17 12 4 24 9 27 13 5 6 48 31 105
59 17 9 32 18 35 21 3 3 19 13 35 21 17 8 32 18 35 21 3 3 34 22 70 41 59 32
202 114 240 138 8 5 16 9 18 9 2 1 34 -17 70 -38z m-5084 -171 c2 0 43 -24 92
-53 49 -29 96 -56 104 -60 8 -5 24 -13 35 -20 88 -53 148 -87 156 -87 5 0 9
-4 9 -8 0 -4 12 -13 28 -20 15 -7 36 -18 47 -25 11 -7 66 -38 122 -71 81 -45
103 -62 102 -79 0 -12 1 -47 1 -77 1 -30 1 -59 0 -65 -1 -5 -1 -35 -1 -65 1
-50 1 -122 0 -167 0 -10 0 -108 0 -217 0 -109 -1 -202 -4 -205 -2 -4 0 -13 5
-21 5 -8 5 -21 -1 -31 -8 -16 -19 -12 -102 36 -50 30 -97 59 -103 64 -7 5 -14
8 -17 5 -2 -2 -10 2 -17 11 -7 8 -19 15 -26 15 -8 0 -14 4 -14 9 0 5 -7 11
-15 13 -36 8 -484 274 -480 285 2 7 1 14 -3 17 -4 2 -6 24 -4 48 2 44 2 87 -2
123 -1 11 1 32 5 47 4 15 4 30 0 32 -4 3 -5 22 -4 43 3 38 3 81 -1 118 -1 11
1 32 5 47 4 15 4 30 0 32 -4 3 -5 22 -4 43 3 38 3 81 -1 118 -1 11 1 32 5 47
4 15 4 30 0 32 -4 3 -5 22 -4 43 2 21 3 50 3 66 l0 27 40 -25 c22 -14 41 -25
44 -25z m7439 -397 c-1 -241 -2 -441 -2 -445 -1 -3 -13 -13 -28 -20 -28 -14
-281 -159 -506 -289 -65 -38 -122 -69 -127 -69 -4 0 -10 -4 -12 -8 -3 -9 -96
-62 -108 -62 -4 0 -8 200 -8 443 l0 444 92 53 c50 30 118 69 151 88 33 19 72
43 87 54 15 10 30 18 34 18 3 0 43 23 89 50 46 28 88 50 94 50 6 0 11 5 11 10
0 6 4 10 8 10 5 0 55 27 112 60 57 32 106 58 109 56 3 -2 5 -201 4 -443z
m-3730 -1751 c29 -16 86 -49 127 -73 41 -25 82 -48 90 -52 27 -14 58 -33 74
-46 9 -7 16 -10 16 -6 0 4 6 3 13 -3 20 -17 358 -212 366 -212 4 0 15 -8 24
-18 16 -18 12 -22 -95 -83 -61 -35 -135 -77 -163 -94 -137 -79 -172 -98 -192
-109 -13 -6 -23 -14 -23 -18 0 -5 -5 -8 -10 -8 -6 0 -65 -32 -132 -71 -108
-62 -124 -69 -146 -60 -23 11 -401 227 -449 257 -13 8 -25 13 -27 12 -2 -2
-12 4 -22 13 -11 9 -74 47 -141 85 -67 38 -120 72 -117 75 2 4 57 37 121 74
65 37 141 81 168 97 28 16 58 32 68 35 9 3 17 9 17 14 0 5 4 9 9 9 6 0 90 47
188 105 98 57 180 104 181 105 2 0 27 -13 55 -28z"/>
</g>
</svg>
